<?xml version="1.0" standalone="no"?>
<!DOCTYPE svg PUBLIC "-//W3C//DTD SVG 20010904//EN"
 "http://www.w3.org/TR/2001/REC-SVG-20010904/DTD/svg10.dtd">
<svg version="1.0" xmlns="http://www.w3.org/2000/svg"
 width="1200.000000pt" height="1200.000000pt" viewBox="0 0 1200.000000 1200.000000"
 preserveAspectRatio="xMidYMid meet">
<metadata>
Created by potrace 1.16, written by Peter Selinger 2001-2019
</metadata>
<g transform="translate(0.000000,1200.000000) scale(0.100000,-0.100000)"
fill="#000000" stroke="none">
<path d="M3715 8430 c-149 -23 -326 -89 -428 -159 -112 -77 -232 -212 -290
-328 -73 -142 -105 -367 -87 -593 24 -303 99 -593 181 -708 27 -37 29 -45 17
-60 -7 -9 -116 -141 -243 -293 -126 -152 -254 -306 -284 -343 l-55 -66 -55 0
c-104 0 -270 -20 -338 -41 -37 -12 -98 -36 -134 -55 l-66 -35 -53 -182 c-29
-100 -57 -188 -62 -194 -8 -10 -119 -13 -495 -13 l-484 0 5 -32 c3 -18 11 -69
17 -113 36 -264 116 -599 213 -890 199 -593 511 -1149 923 -1642 265 -319 513
-553 858 -812 558 -420 1170 -714 1816 -875 737 -183 1466 -204 2224 -65 234
43 611 143 735 194 30 13 117 47 192 75 76 29 135 57 131 62 -3 6 3 7 16 3 14
-4 21 -2 21 6 0 7 3 10 6 7 7 -8 116 41 126 56 4 6 13 11 20 12 34 3 39 5 33
14 -4 6 1 7 11 3 13 -5 15 -3 9 7 -5 8 -4 11 3 6 14 -9 163 65 155 77 -3 6 -1
7 5 3 14 -8 143 64 136 76 -3 4 1 5 9 2 8 -3 21 1 28 8 8 7 32 22 54 33 22 11
47 28 57 38 10 9 18 15 18 12 0 -3 27 13 60 35 33 23 58 45 56 49 -3 4 5 7 17
7 13 -1 21 4 19 12 -1 8 2 11 8 7 13 -8 70 35 70 54 0 12 2 13 9 3 6 -10 11
-9 22 4 7 9 31 28 52 41 21 13 35 28 32 32 -2 5 3 8 13 7 9 0 16 5 14 12 -1 8
2 11 7 7 6 -3 34 14 63 37 30 24 70 56 90 72 21 16 35 33 32 38 -3 5 0 7 8 6
7 -2 12 5 12 15 -2 13 1 15 10 8 9 -8 19 -4 34 13 11 13 17 28 14 32 -4 4 -1
4 6 0 8 -5 30 9 60 41 26 26 51 47 55 45 5 -1 6 1 3 6 -2 4 11 18 30 31 19 13
31 28 27 35 -3 6 -2 8 2 3 11 -9 45 22 45 41 0 9 3 12 6 9 11 -11 105 90 98
106 -7 18 12 32 22 16 4 -8 3 -9 -4 -5 -7 4 -12 2 -12 -3 0 -19 15 -12 45 19
16 17 25 30 20 30 -5 0 3 10 19 23 52 41 168 186 160 199 -4 7 -4 10 0 6 5 -4
21 8 37 25 16 18 39 42 51 53 11 12 17 27 13 33 -3 6 -2 10 3 9 17 -6 62 58
57 82 -2 12 -2 20 2 17 21 -21 121 109 274 358 398 647 629 1322 723 2113 l7
52 -191 0 -190 0 1 48 c0 26 19 475 43 997 24 523 42 952 40 954 -2 2 -549 30
-1216 62 -667 32 -1584 77 -2038 99 -454 22 -853 40 -887 40 l-63 0 0 -47 c1
-128 -42 -2124 -46 -2160 l-5 -43 -219 0 -219 0 -30 43 c-41 60 -133 136 -191
158 -56 21 -290 66 -520 100 l-155 22 -203 171 c-112 94 -229 191 -260 215
-31 23 -94 74 -140 113 -45 38 -94 73 -110 78 -78 27 -546 109 -623 110 -31 1
-28 4 44 40 140 71 218 131 469 358 l136 124 -5 52 c-9 87 32 176 81 176 61 0
135 -108 156 -228 12 -70 14 -222 4 -280 -4 -20 -4 -35 -1 -32 3 3 18 62 32
130 22 102 27 162 32 325 l5 200 37 65 c75 129 96 195 96 295 0 99 -15 152
-69 240 -93 152 -311 327 -548 439 -62 30 -138 61 -168 71 -137 41 -291 54
-415 35z m4940 -1001 c1078 -56 1961 -103 1963 -104 2 -2 -21 -543 -50 -1204
-46 -1045 -55 -1201 -68 -1201 -66 2 -3871 367 -3876 373 -7 7 31 1940 42
2135 4 67 10 102 17 102 7 1 894 -45 1972 -101z"/>
<path d="M7011 7186 c-32 -38 -55 -438 -56 -947 l0 -415 30 -37 c38 -45 58
-51 131 -37 109 20 281 23 406 7 250 -34 268 3 284 578 8 270 6 280 -61 354
-61 67 -117 71 -295 22 -41 -12 -78 -21 -83 -21 -7 0 -6 49 9 292 l5 88 -40
43 c-39 43 -44 44 -143 62 -159 28 -173 29 -187 11z m182 -51 c49 -8 93 -18
99 -21 6 -4 7 -87 2 -240 -4 -150 -3 -234 3 -234 8 0 200 39 323 66 45 10 79
-12 102 -63 21 -47 21 -52 9 -323 -17 -392 -28 -453 -93 -489 -22 -13 -39 -13
-124 -1 -123 16 -291 17 -412 0 -51 -7 -96 -10 -100 -6 -12 13 -14 589 -2 841
13 293 29 476 42 492 6 8 18 9 36 2 15 -5 67 -15 115 -24z"/>
<path d="M7348 6376 c-26 -6 -52 -15 -57 -21 -10 -10 -19 -200 -10 -209 8 -8
138 -10 146 -2 9 9 23 214 16 234 -6 14 -30 14 -95 -2z"/>
<path d="M7941 7146 c-8 -10 -16 -74 -22 -188 -11 -220 -29 -851 -29 -1030 l0
-138 40 -40 c35 -35 44 -39 68 -33 36 11 172 6 204 -6 34 -13 66 9 72 52 16
101 45 1241 33 1288 -4 13 -20 39 -37 57 -29 30 -34 32 -83 26 -29 -3 -79 -1
-112 6 -107 22 -120 23 -134 6z m114 -40 c22 -4 70 -7 107 -8 48 -1 69 -5 72
-15 14 -35 -24 -1269 -39 -1293 -3 -5 -22 -4 -43 2 -20 6 -79 8 -131 6 l-94
-5 6 366 c9 490 26 921 37 949 8 18 14 21 27 14 10 -6 36 -13 58 -16z"/>
<path d="M8502 6675 c-21 -17 -37 -44 -47 -78 -21 -71 -38 -353 -33 -565 4
-197 15 -238 77 -297 l32 -30 277 -8 c152 -5 298 -9 324 -10 57 -2 90 24 112
90 21 63 39 365 34 581 -4 197 -12 224 -81 290 l-34 33 -254 3 c-140 2 -281 7
-314 11 -57 7 -63 6 -93 -20z m415 -30 c166 -2 237 -6 247 -14 39 -32 50 -191
36 -504 -12 -254 -21 -313 -55 -346 l-24 -25 -127 13 c-70 7 -202 12 -293 10
-91 -2 -175 0 -187 4 -41 14 -48 50 -52 262 -2 110 1 270 7 356 17 244 31 267
146 253 39 -4 175 -8 302 -9z"/>
<path d="M8755 6328 c-3 -13 -4 -75 -3 -138 l3 -115 69 -3 c38 -2 73 1 77 5 4
4 11 61 15 125 9 146 7 148 -87 148 -63 0 -69 -2 -74 -22z"/>
<path d="M9509 6658 c-43 -29 -85 -113 -99 -198 -5 -36 -13 -160 -16 -276 -8
-237 -1 -286 47 -346 34 -43 35 -48 10 -48 -37 0 -51 -37 -51 -137 0 -124 13
-181 53 -224 53 -60 64 -63 195 -49 121 12 213 8 374 -16 190 -29 197 -9 219
586 6 168 8 382 4 477 l-7 172 -31 41 c-36 46 -38 46 -209 26 -105 -12 -138
-25 -138 -52 0 -20 -4 -19 -123 26 -124 47 -178 51 -228 18z m226 -58 c65 -22
127 -40 136 -40 10 0 19 11 22 28 6 28 6 28 133 41 106 11 128 11 136 0 12
-19 3 -818 -12 -979 -20 -223 -26 -229 -191 -204 -88 13 -155 15 -291 11 -128
-4 -181 -2 -193 7 -23 17 -34 77 -35 184 0 79 3 94 18 100 9 4 69 7 132 7
l115 0 5 -35 5 -35 75 0 75 0 3 62 c4 76 16 72 -204 75 -180 3 -192 7 -221 77
-27 64 -11 522 22 638 19 65 61 103 114 103 20 0 91 -18 156 -40z"/>
<path d="M9727 6323 c-4 -3 -7 -59 -7 -124 0 -136 -2 -133 101 -127 l54 3 7
75 c12 118 7 133 -55 158 -53 22 -88 28 -100 15z"/>
</g>
</svg>
